<?xml version="1.0" encoding="UTF-8" standalone="no"?>
<!DOCTYPE svg PUBLIC "-//W3C//DTD SVG 1.1//EN"
 "http://www.w3.org/Graphics/SVG/1.1/DTD/svg11.dtd">
<!-- Generated by graphviz version 2.43.0 (0)
 -->
<!-- Title: bearing Pages: 1 -->
<svg width="1362pt" height="764pt"
 viewBox="0.00 0.00 1361.50 764.00" xmlns="http://www.w3.org/2000/svg" xmlns:xlink="http://www.w3.org/1999/xlink">
<g id="graph0" class="graph" transform="scale(1 1) rotate(0) translate(4 760)">
<title>bearing</title>
<polygon fill="white" stroke="transparent" points="-4,4 -4,-760 1357.5,-760 1357.5,4 -4,4"/>
<g id="clust1" class="cluster">
<title>cluster_legend</title>
<path fill="white" stroke="#cccccc" d="M588,-448C588,-448 712,-448 712,-448 718,-448 724,-454 724,-460 724,-460 724,-736 724,-736 724,-742 718,-748 712,-748 712,-748 588,-748 588,-748 582,-748 576,-742 576,-736 576,-736 576,-460 576,-460 576,-454 582,-448 588,-448"/>
<text text-anchor="middle" x="650" y="-735.2" font-family="sans" font-size="11.00">Legend</text>
</g>
<!-- sheet -->
<g id="node1" class="node">
<title>sheet</title>
<path fill="#eef3fb" stroke="#003087" stroke-width="1.5" d="M378.5,-720C378.5,-720 265.5,-720 265.5,-720 259.5,-720 253.5,-714 253.5,-708 253.5,-708 253.5,-696 253.5,-696 253.5,-690 259.5,-684 265.5,-684 265.5,-684 378.5,-684 378.5,-684 384.5,-684 390.5,-690 390.5,-696 390.5,-696 390.5,-708 390.5,-708 390.5,-714 384.5,-720 378.5,-720"/>
<text text-anchor="middle" x="322" y="-705.2" font-family="sans" font-size="11.00">bearing_sheet</text>
<text text-anchor="middle" x="322" y="-693.2" font-family="sans" font-size="11.00">(BEARING&#45;only sheet)</text>
</g>
<!-- detect -->
<g id="node2" class="node">
<title>detect</title>
<path fill="#eef3fb" stroke="#003087" stroke-width="1.5" d="M361,-644C361,-644 283,-644 283,-644 277,-644 271,-638 271,-632 271,-632 271,-620 271,-620 271,-614 277,-608 283,-608 283,-608 361,-608 361,-608 367,-608 373,-614 373,-620 373,-620 373,-632 373,-632 373,-638 367,-644 361,-644"/>
<text text-anchor="middle" x="322" y="-623.2" font-family="sans" font-size="11.00">detect_blacklist</text>
</g>
<!-- sheet&#45;&gt;detect -->
<g id="edge1" class="edge">
<title>sheet&#45;&gt;detect</title>
<path fill="none" stroke="#7a869a" stroke-width="1.3" d="M322,-683.84C322,-674.4 322,-662.53 322,-652.07"/>
<polygon fill="#7a869a" stroke="#7a869a" stroke-width="1.3" points="324.8,-652.07 322,-644.07 319.2,-652.07 324.8,-652.07"/>
</g>
<!-- score -->
<g id="node4" class="node">
<title>score</title>
<path fill="#dfeede" stroke="#00855b" stroke-width="1.5" d="M266,-492C266,-492 172,-492 172,-492 166,-492 160,-486 160,-480 160,-480 160,-468 160,-468 160,-462 166,-456 172,-456 172,-456 266,-456 266,-456 272,-456 278,-462 278,-468 278,-468 278,-480 278,-480 278,-486 272,-492 266,-492"/>
<text text-anchor="middle" x="219" y="-477.2" font-family="sans" font-size="11.00">score</text>
<text text-anchor="middle" x="219" y="-465.2" font-family="sans" font-size="11.00">(qcat + floors.tsv)</text>
</g>
<!-- sheet&#45;&gt;score -->
<g id="edge3" class="edge">
<title>sheet&#45;&gt;score</title>
<path fill="none" stroke="#7a869a" stroke-width="1.3" d="M296,-683.82C282.72,-673.74 267.41,-659.87 258,-644 230.83,-598.15 222.59,-534.91 220.09,-500.25"/>
<polygon fill="#7a869a" stroke="#7a869a" stroke-width="1.3" points="222.87,-499.89 219.57,-492.08 217.28,-500.24 222.87,-499.89"/>
</g>
<!-- compare -->
<g id="node5" class="node">
<title>compare</title>
<path fill="#dfeede" stroke="#00855b" stroke-width="1.5" d="M240,-340C240,-340 94,-340 94,-340 88,-340 82,-334 82,-328 82,-328 82,-316 82,-316 82,-310 88,-304 94,-304 94,-304 240,-304 240,-304 246,-304 252,-310 252,-316 252,-316 252,-328 252,-328 252,-334 246,-340 240,-340"/>
<text text-anchor="middle" x="167" y="-325.2" font-family="sans" font-size="11.00">compare</text>
<text text-anchor="middle" x="167" y="-313.2" font-family="sans" font-size="11.00">(primary + supp Spearman)</text>
</g>
<!-- sheet&#45;&gt;compare -->
<g id="edge12" class="edge">
<title>sheet&#45;&gt;compare</title>
<path fill="none" stroke="#7a869a" stroke-width="1.3" d="M261.72,-683.91C202.83,-663.09 122,-621.64 122,-551 122,-551 122,-551 122,-473 122,-427.08 141.59,-376.45 154.92,-347.33"/>
<polygon fill="#7a869a" stroke="#7a869a" stroke-width="1.3" points="157.47,-348.48 158.32,-340.05 152.4,-346.11 157.47,-348.48"/>
</g>
<!-- perm -->
<g id="node6" class="node">
<title>perm</title>
<path fill="#eef3fb" stroke="#003087" stroke-width="1.5" d="M444.5,-416C444.5,-416 391.5,-416 391.5,-416 385.5,-416 379.5,-410 379.5,-404 379.5,-404 379.5,-392 379.5,-392 379.5,-386 385.5,-380 391.5,-380 391.5,-380 444.5,-380 444.5,-380 450.5,-380 456.5,-386 456.5,-392 456.5,-392 456.5,-404 456.5,-404 456.5,-410 450.5,-416 444.5,-416"/>
<text text-anchor="middle" x="418" y="-401.2" font-family="sans" font-size="11.00">perm_nulls</text>
<text text-anchor="middle" x="418" y="-389.2" font-family="sans" font-size="11.00">(observed)</text>
</g>
<!-- sheet&#45;&gt;perm -->
<g id="edge5" class="edge">
<title>sheet&#45;&gt;perm</title>
<path fill="none" stroke="#7a869a" stroke-width="1.3" d="M348.5,-683.83C361.67,-673.84 376.55,-660.05 385,-644 423.21,-571.42 422.76,-470.67 420.08,-424.26"/>
<polygon fill="#7a869a" stroke="#7a869a" stroke-width="1.3" points="422.87,-424.05 419.56,-416.24 417.28,-424.41 422.87,-424.05"/>
</g>
<!-- permd -->
<g id="node7" class="node">
<title>permd</title>
<path fill="#eef3fb" stroke="#003087" stroke-width="1.5" d="M532,-340C532,-340 458,-340 458,-340 452,-340 446,-334 446,-328 446,-328 446,-316 446,-316 446,-310 452,-304 458,-304 458,-304 532,-304 532,-304 538,-304 544,-310 544,-316 544,-316 544,-328 544,-328 544,-334 538,-340 532,-340"/>
<text text-anchor="middle" x="495" y="-319.2" font-family="sans" font-size="11.00">perm_nulls_diff</text>
</g>
<!-- sheet&#45;&gt;permd -->
<g id="edge8" class="edge">
<title>sheet&#45;&gt;permd</title>
<path fill="none" stroke="#7a869a" stroke-width="1.3" d="M390.73,-685.76C456.58,-666.63 546,-626.7 546,-551 546,-551 546,-551 546,-473 546,-426.79 524.04,-376.64 508.94,-347.61"/>
<polygon fill="#7a869a" stroke="#7a869a" stroke-width="1.3" points="511.31,-346.1 505.08,-340.36 506.36,-348.73 511.31,-346.1"/>
</g>
<!-- merge -->
<g id="node3" class="node">
<title>merge</title>
<path fill="#eef3fb" stroke="#003087" stroke-width="1.5" d="M361,-568C361,-568 283,-568 283,-568 277,-568 271,-562 271,-556 271,-556 271,-544 271,-544 271,-538 277,-532 283,-532 283,-532 361,-532 361,-532 367,-532 373,-538 373,-544 373,-544 373,-556 373,-556 373,-562 367,-568 361,-568"/>
<text text-anchor="middle" x="322" y="-553.2" font-family="sans" font-size="11.00">merge_blacklist</text>
<text text-anchor="middle" x="322" y="-541.2" font-family="sans" font-size="11.00">(+ ENCODE)</text>
</g>
<!-- detect&#45;&gt;merge -->
<g id="edge2" class="edge">
<title>detect&#45;&gt;merge</title>
<path fill="none" stroke="#7a869a" stroke-width="1.3" d="M322,-607.84C322,-598.4 322,-586.53 322,-576.07"/>
<polygon fill="#7a869a" stroke="#7a869a" stroke-width="1.3" points="324.8,-576.07 322,-568.07 319.2,-576.07 324.8,-576.07"/>
</g>
<!-- merge&#45;&gt;score -->
<g id="edge4" class="edge">
<title>merge&#45;&gt;score</title>
<path fill="none" stroke="#7a869a" stroke-width="1.3" d="M298.11,-531.84C283.68,-521.47 265.15,-508.15 249.64,-497.02"/>
<polygon fill="#7a869a" stroke="#7a869a" stroke-width="1.3" points="250.89,-494.46 242.76,-492.07 247.62,-499.01 250.89,-494.46"/>
</g>
<!-- merge&#45;&gt;perm -->
<g id="edge6" class="edge">
<title>merge&#45;&gt;perm</title>
<path fill="none" stroke="#7a869a" stroke-width="1.3" d="M333.01,-531.79C350.16,-505.01 383.27,-453.26 402.72,-422.88"/>
<polygon fill="#7a869a" stroke="#7a869a" stroke-width="1.3" points="405.16,-424.25 407.12,-416.01 400.45,-421.24 405.16,-424.25"/>
</g>
<!-- merge&#45;&gt;permd -->
<g id="edge9" class="edge">
<title>merge&#45;&gt;permd</title>
<path fill="none" stroke="#7a869a" stroke-width="1.3" d="M349.34,-531.88C382.82,-509.45 438.79,-466.91 469,-416 481.44,-395.03 488.14,-367.86 491.6,-348.31"/>
<polygon fill="#7a869a" stroke="#7a869a" stroke-width="1.3" points="494.41,-348.52 492.94,-340.18 488.88,-347.62 494.41,-348.52"/>
</g>
<!-- all -->
<g id="node19" class="node">
<title>all</title>
<ellipse fill="#f6dada" stroke="#a01010" stroke-width="1.5" cx="548" cy="-18" rx="27" ry="18"/>
<text text-anchor="middle" x="548" y="-15.2" font-family="sans" font-size="11.00">all</text>
</g>
<!-- merge&#45;&gt;all -->
<g id="edge22" class="edge">
<title>merge&#45;&gt;all</title>
<path fill="none" stroke="#7a869a" stroke-width="1.3" d="M317.88,-531.82C309.24,-494.21 290,-401.66 290,-323 290,-323 290,-323 290,-169 290,-66.93 442.77,-33.13 513.2,-22.97"/>
<polygon fill="#7a869a" stroke="#7a869a" stroke-width="1.3" points="513.82,-25.71 521.36,-21.84 513.05,-20.16 513.82,-25.71"/>
</g>
<!-- score&#45;&gt;compare -->
<g id="edge13" class="edge">
<title>score&#45;&gt;compare</title>
<path fill="none" stroke="#7a869a" stroke-width="1.3" d="M213.03,-455.79C203.83,-429.23 186.11,-378.13 175.55,-347.65"/>
<polygon fill="#7a869a" stroke="#7a869a" stroke-width="1.3" points="178.16,-346.65 172.9,-340.01 172.87,-348.48 178.16,-346.65"/>
</g>
<!-- score&#45;&gt;perm -->
<g id="edge7" class="edge">
<title>score&#45;&gt;perm</title>
<path fill="none" stroke="#7a869a" stroke-width="1.3" d="M265.15,-455.84C297.26,-443.9 339.88,-428.05 371.95,-416.12"/>
<polygon fill="#7a869a" stroke="#7a869a" stroke-width="1.3" points="372.93,-418.75 379.45,-413.33 370.98,-413.5 372.93,-418.75"/>
</g>
<!-- score&#45;&gt;permd -->
<g id="edge10" class="edge">
<title>score&#45;&gt;permd</title>
<path fill="none" stroke="#7a869a" stroke-width="1.3" d="M243.75,-455.92C272.63,-436.35 322.15,-403.92 367,-380 392.18,-366.57 421.16,-353.48 445.17,-343.24"/>
<polygon fill="#7a869a" stroke="#7a869a" stroke-width="1.3" points="446.5,-345.71 452.78,-340.02 444.32,-340.56 446.5,-345.71"/>
</g>
<!-- calib -->
<g id="node11" class="node">
<title>calib</title>
<path fill="#eef3fb" stroke="#003087" stroke-width="1.5" d="M62,-416C62,-416 12,-416 12,-416 6,-416 0,-410 0,-404 0,-404 0,-392 0,-392 0,-386 6,-380 12,-380 12,-380 62,-380 62,-380 68,-380 74,-386 74,-392 74,-392 74,-404 74,-404 74,-410 68,-416 62,-416"/>
<text text-anchor="middle" x="37" y="-401.2" font-family="sans" font-size="11.00">calibration</text>
<text text-anchor="middle" x="37" y="-389.2" font-family="sans" font-size="11.00">(Table S6)</text>
</g>
<!-- score&#45;&gt;calib -->
<g id="edge18" class="edge">
<title>score&#45;&gt;calib</title>
<path fill="none" stroke="#7a869a" stroke-width="1.3" d="M176.79,-455.84C148.26,-444.24 110.64,-428.94 81.61,-417.14"/>
<polygon fill="#7a869a" stroke="#7a869a" stroke-width="1.3" points="82.52,-414.48 74.05,-414.06 80.41,-419.67 82.52,-414.48"/>
</g>
<!-- pval -->
<g id="node8" class="node">
<title>pval</title>
<path fill="#dfeede" stroke="#00855b" stroke-width="1.5" d="M535,-264C535,-264 483,-264 483,-264 477,-264 471,-258 471,-252 471,-252 471,-240 471,-240 471,-234 477,-228 483,-228 483,-228 535,-228 535,-228 541,-228 547,-234 547,-240 547,-240 547,-252 547,-252 547,-258 541,-264 535,-264"/>
<text text-anchor="middle" x="509" y="-243.2" font-family="sans" font-size="11.00">pvalue_diff</text>
</g>
<!-- compare&#45;&gt;pval -->
<g id="edge14" class="edge">
<title>compare&#45;&gt;pval</title>
<path fill="none" stroke="#7a869a" stroke-width="1.3" d="M245.89,-303.93C313.01,-289.41 407.13,-269.04 462.71,-257.02"/>
<polygon fill="#7a869a" stroke="#7a869a" stroke-width="1.3" points="463.4,-259.73 470.62,-255.3 462.21,-254.26 463.4,-259.73"/>
</g>
<!-- decomp -->
<g id="node12" class="node">
<title>decomp</title>
<path fill="#eef3fb" stroke="#003087" stroke-width="1.5" d="M189,-264C189,-264 77,-264 77,-264 71,-264 65,-258 65,-252 65,-252 65,-240 65,-240 65,-234 71,-228 77,-228 77,-228 189,-228 189,-228 195,-228 201,-234 201,-240 201,-240 201,-252 201,-252 201,-258 195,-264 189,-264"/>
<text text-anchor="middle" x="133" y="-243.2" font-family="sans" font-size="11.00">decomposition_report</text>
</g>
<!-- compare&#45;&gt;decomp -->
<g id="edge19" class="edge">
<title>compare&#45;&gt;decomp</title>
<path fill="none" stroke="#7a869a" stroke-width="1.3" d="M159.11,-303.84C154.69,-294.22 149.11,-282.06 144.24,-271.46"/>
<polygon fill="#7a869a" stroke="#7a869a" stroke-width="1.3" points="146.73,-270.17 140.84,-264.07 141.64,-272.51 146.73,-270.17"/>
</g>
<!-- compare&#45;&gt;all -->
<g id="edge23" class="edge">
<title>compare&#45;&gt;all</title>
<path fill="none" stroke="#7a869a" stroke-width="1.3" d="M183.82,-303.77C193.49,-293.06 205.23,-278.59 213,-264 254.08,-186.81 206.27,-134.78 271,-76 306.21,-44.03 446.74,-27.81 513.04,-21.8"/>
<polygon fill="#7a869a" stroke="#7a869a" stroke-width="1.3" points="513.4,-24.58 521.13,-21.09 512.91,-19 513.4,-24.58"/>
</g>
<!-- perm&#45;&gt;permd -->
<g id="edge11" class="edge">
<title>perm&#45;&gt;permd</title>
<path fill="none" stroke="#7a869a" stroke-width="1.3" d="M435.86,-379.84C446.45,-369.66 460,-356.63 471.46,-345.62"/>
<polygon fill="#7a869a" stroke="#7a869a" stroke-width="1.3" points="473.41,-347.63 477.24,-340.07 469.53,-343.59 473.41,-347.63"/>
</g>
<!-- permd&#45;&gt;pval -->
<g id="edge15" class="edge">
<title>permd&#45;&gt;pval</title>
<path fill="none" stroke="#7a869a" stroke-width="1.3" d="M498.25,-303.84C500.03,-294.4 502.28,-282.53 504.26,-272.07"/>
<polygon fill="#7a869a" stroke="#7a869a" stroke-width="1.3" points="507.03,-272.45 505.77,-264.07 501.53,-271.41 507.03,-272.45"/>
</g>
<!-- renr -->
<g id="node9" class="node">
<title>renr</title>
<path fill="#eef3fb" stroke="#003087" stroke-width="1.5" d="M763,-188C763,-188 659,-188 659,-188 653,-188 647,-182 647,-176 647,-176 647,-164 647,-164 647,-158 653,-152 659,-152 659,-152 763,-152 763,-152 769,-152 775,-158 775,-164 775,-164 775,-176 775,-176 775,-182 769,-188 763,-188"/>
<text text-anchor="middle" x="711" y="-173.2" font-family="sans" font-size="11.00">regional_enrichment</text>
<text text-anchor="middle" x="711" y="-161.2" font-family="sans" font-size="11.00">(x4 comparisons)</text>
</g>
<!-- pval&#45;&gt;renr -->
<g id="edge16" class="edge">
<title>pval&#45;&gt;renr</title>
<path fill="none" stroke="#7a869a" stroke-width="1.3" d="M547.47,-230.91C578.44,-219.56 622.34,-203.48 656.86,-190.83"/>
<polygon fill="#7a869a" stroke="#7a869a" stroke-width="1.3" points="657.97,-193.41 664.52,-188.03 656.04,-188.15 657.97,-193.41"/>
</g>
<!-- figs -->
<g id="node14" class="node">
<title>figs</title>
<path fill="#fde8e0" stroke="#c0392b" stroke-width="1.5" d="M438,-188C438,-188 340,-188 340,-188 334,-188 328,-182 328,-176 328,-176 328,-164 328,-164 328,-158 334,-152 340,-152 340,-152 438,-152 438,-152 444,-152 450,-158 450,-164 450,-164 450,-176 450,-176 450,-182 444,-188 438,-188"/>
<text text-anchor="middle" x="389" y="-167.2" font-family="sans" font-size="11.00">bearing_hic_figures</text>
</g>
<!-- pval&#45;&gt;figs -->
<g id="edge20" class="edge">
<title>pval&#45;&gt;figs</title>
<path fill="none" stroke="#7a869a" stroke-width="1.3" d="M481.17,-227.84C464.05,-217.28 441.98,-203.67 423.73,-192.42"/>
<polygon fill="#7a869a" stroke="#7a869a" stroke-width="1.3" points="424.96,-189.89 416.68,-188.07 422.02,-194.65 424.96,-189.89"/>
</g>
<!-- hxloc -->
<g id="node18" class="node">
<title>hxloc</title>
<path fill="#fde8e0" stroke="#c0392b" stroke-width="1.5" d="M558.5,-188C558.5,-188 487.5,-188 487.5,-188 481.5,-188 475.5,-182 475.5,-176 475.5,-176 475.5,-164 475.5,-164 475.5,-158 481.5,-152 487.5,-152 487.5,-152 558.5,-152 558.5,-152 564.5,-152 570.5,-158 570.5,-164 570.5,-164 570.5,-176 570.5,-176 570.5,-182 564.5,-188 558.5,-188"/>
<text text-anchor="middle" x="523" y="-167.2" font-family="sans" font-size="11.00">hic_crosslocus</text>
</g>
<!-- pval&#45;&gt;hxloc -->
<g id="edge21" class="edge">
<title>pval&#45;&gt;hxloc</title>
<path fill="none" stroke="#7a869a" stroke-width="1.3" d="M512.25,-227.84C514.03,-218.4 516.28,-206.53 518.26,-196.07"/>
<polygon fill="#7a869a" stroke="#7a869a" stroke-width="1.3" points="521.03,-196.45 519.77,-188.07 515.53,-195.41 521.03,-196.45"/>
</g>
<!-- pval&#45;&gt;all -->
<g id="edge24" class="edge">
<title>pval&#45;&gt;all</title>
<path fill="none" stroke="#7a869a" stroke-width="1.3" d="M543.35,-227.89C558.45,-218.39 574.62,-205.02 583,-188 606.73,-139.76 580,-76.12 561.89,-42.37"/>
<polygon fill="#7a869a" stroke="#7a869a" stroke-width="1.3" points="564.27,-40.89 557.95,-35.24 559.37,-43.6 564.27,-40.89"/>
</g>
<!-- rcons -->
<g id="node10" class="node">
<title>rcons</title>
<path fill="#eef3fb" stroke="#003087" stroke-width="1.5" d="M731.5,-112C731.5,-112 624.5,-112 624.5,-112 618.5,-112 612.5,-106 612.5,-100 612.5,-100 612.5,-88 612.5,-88 612.5,-82 618.5,-76 624.5,-76 624.5,-76 731.5,-76 731.5,-76 737.5,-76 743.5,-82 743.5,-88 743.5,-88 743.5,-100 743.5,-100 743.5,-106 737.5,-112 731.5,-112"/>
<text text-anchor="middle" x="678" y="-97.2" font-family="sans" font-size="11.00">regional_consolidate</text>
<text text-anchor="middle" x="678" y="-85.2" font-family="sans" font-size="11.00">(+ panel E heatmap)</text>
</g>
<!-- renr&#45;&gt;rcons -->
<g id="edge17" class="edge">
<title>renr&#45;&gt;rcons</title>
<path fill="none" stroke="#7a869a" stroke-width="1.3" d="M703.35,-151.84C699.06,-142.22 693.63,-130.06 688.91,-119.46"/>
<polygon fill="#7a869a" stroke="#7a869a" stroke-width="1.3" points="691.43,-118.24 685.61,-112.07 686.31,-120.52 691.43,-118.24"/>
</g>
<!-- rcons&#45;&gt;all -->
<g id="edge25" class="edge">
<title>rcons&#45;&gt;all</title>
<path fill="none" stroke="#7a869a" stroke-width="1.3" d="M647.85,-75.84C625.84,-63.31 596.27,-46.48 575.03,-34.38"/>
<polygon fill="#7a869a" stroke="#7a869a" stroke-width="1.3" points="576.22,-31.84 567.89,-30.32 573.45,-36.71 576.22,-31.84"/>
</g>
<!-- calib&#45;&gt;all -->
<g id="edge26" class="edge">
<title>calib&#45;&gt;all</title>
<path fill="none" stroke="#7a869a" stroke-width="1.3" d="M35.12,-379.93C32.22,-352.12 27,-295.28 27,-247 27,-247 27,-247 27,-169 27,-67.65 395.71,-30.66 512.78,-21.48"/>
<polygon fill="#7a869a" stroke="#7a869a" stroke-width="1.3" points="513.32,-24.24 521.09,-20.84 512.89,-18.66 513.32,-24.24"/>
</g>
<!-- decomp&#45;&gt;all -->
<g id="edge27" class="edge">
<title>decomp&#45;&gt;all</title>
<path fill="none" stroke="#7a869a" stroke-width="1.3" d="M136.51,-227.81C144.57,-193.02 167.88,-114.3 220,-76 266.25,-42.02 438.14,-26.46 512.9,-21.19"/>
<polygon fill="#7a869a" stroke="#7a869a" stroke-width="1.3" points="513.31,-23.96 521.09,-20.62 512.92,-18.38 513.31,-23.96"/>
</g>
<!-- bench -->
<g id="node13" class="node">
<title>bench</title>
<path fill="#fff3d6" stroke="#b8860b" stroke-width="1.5" d="M907.5,-112C907.5,-112 780.5,-112 780.5,-112 774.5,-112 768.5,-106 768.5,-100 768.5,-100 768.5,-88 768.5,-88 768.5,-82 774.5,-76 780.5,-76 780.5,-76 907.5,-76 907.5,-76 913.5,-76 919.5,-82 919.5,-88 919.5,-88 919.5,-100 919.5,-100 919.5,-106 913.5,-112 907.5,-112"/>
<text text-anchor="middle" x="844" y="-97.2" font-family="sans" font-size="11.00">benchmark</text>
<text text-anchor="middle" x="844" y="-85.2" font-family="sans" font-size="11.00">(synthetic, no real data)</text>
</g>
<!-- bench&#45;&gt;all -->
<g id="edge28" class="edge">
<title>bench&#45;&gt;all</title>
<path fill="none" stroke="#7a869a" stroke-width="1.3" d="M775.72,-75.93C714.68,-60.67 627.84,-38.96 581.01,-27.25"/>
<polygon fill="#7a869a" stroke="#7a869a" stroke-width="1.3" points="581.46,-24.48 573.02,-25.25 580.1,-29.91 581.46,-24.48"/>
</g>
<!-- figs&#45;&gt;all -->
<g id="edge29" class="edge">
<title>figs&#45;&gt;all</title>
<path fill="none" stroke="#7a869a" stroke-width="1.3" d="M407.24,-151.79C436.91,-123.8 495.47,-68.56 526.89,-38.91"/>
<polygon fill="#7a869a" stroke="#7a869a" stroke-width="1.3" points="528.9,-40.87 532.8,-33.34 525.06,-36.79 528.9,-40.87"/>
</g>
<!-- htad -->
<g id="node15" class="node">
<title>htad</title>
<path fill="#fde8e0" stroke="#c0392b" stroke-width="1.5" d="M1047.5,-112C1047.5,-112 956.5,-112 956.5,-112 950.5,-112 944.5,-106 944.5,-100 944.5,-100 944.5,-88 944.5,-88 944.5,-82 950.5,-76 956.5,-76 956.5,-76 1047.5,-76 1047.5,-76 1053.5,-76 1059.5,-82 1059.5,-88 1059.5,-88 1059.5,-100 1059.5,-100 1059.5,-106 1053.5,-112 1047.5,-112"/>
<text text-anchor="middle" x="1002" y="-91.2" font-family="sans" font-size="11.00">hic_tad_extension</text>
</g>
<!-- htad&#45;&gt;all -->
<g id="edge30" class="edge">
<title>htad&#45;&gt;all</title>
<path fill="none" stroke="#7a869a" stroke-width="1.3" d="M944.41,-78.57C940.22,-77.66 936.05,-76.79 932,-76 804.18,-51.05 650.53,-31.29 582.88,-23.1"/>
<polygon fill="#7a869a" stroke="#7a869a" stroke-width="1.3" points="582.96,-20.29 574.68,-22.11 582.29,-25.85 582.96,-20.29"/>
</g>
<!-- hcomp -->
<g id="node16" class="node">
<title>hcomp</title>
<path fill="#fde8e0" stroke="#c0392b" stroke-width="1.5" d="M1185,-112C1185,-112 1097,-112 1097,-112 1091,-112 1085,-106 1085,-100 1085,-100 1085,-88 1085,-88 1085,-82 1091,-76 1097,-76 1097,-76 1185,-76 1185,-76 1191,-76 1197,-82 1197,-88 1197,-88 1197,-100 1197,-100 1197,-106 1191,-112 1185,-112"/>
<text text-anchor="middle" x="1141" y="-91.2" font-family="sans" font-size="11.00">hic_compartment</text>
</g>
<!-- hcomp&#45;&gt;all -->
<g id="edge31" class="edge">
<title>hcomp&#45;&gt;all</title>
<path fill="none" stroke="#7a869a" stroke-width="1.3" d="M1084.65,-78.47C1080.38,-77.57 1076.13,-76.73 1072,-76 889.48,-43.74 667.76,-26.85 583.13,-21.2"/>
<polygon fill="#7a869a" stroke="#7a869a" stroke-width="1.3" points="583.07,-18.39 574.9,-20.66 582.7,-23.98 583.07,-18.39"/>
</g>
<!-- hiso -->
<g id="node17" class="node">
<title>hiso</title>
<path fill="#fde8e0" stroke="#c0392b" stroke-width="1.5" d="M1341.5,-112C1341.5,-112 1234.5,-112 1234.5,-112 1228.5,-112 1222.5,-106 1222.5,-100 1222.5,-100 1222.5,-88 1222.5,-88 1222.5,-82 1228.5,-76 1234.5,-76 1234.5,-76 1341.5,-76 1341.5,-76 1347.5,-76 1353.5,-82 1353.5,-88 1353.5,-88 1353.5,-100 1353.5,-100 1353.5,-106 1347.5,-112 1341.5,-112"/>
<text text-anchor="middle" x="1288" y="-91.2" font-family="sans" font-size="11.00">hic_contact_isolation</text>
</g>
<!-- hiso&#45;&gt;all -->
<g id="edge32" class="edge">
<title>hiso&#45;&gt;all</title>
<path fill="none" stroke="#7a869a" stroke-width="1.3" d="M1222.15,-78.02C1218.05,-77.29 1213.97,-76.6 1210,-76 972,-39.97 682.16,-24.81 583.11,-20.43"/>
<polygon fill="#7a869a" stroke="#7a869a" stroke-width="1.3" points="583.06,-17.63 574.95,-20.07 582.82,-23.22 583.06,-17.63"/>
</g>
<!-- hxloc&#45;&gt;all -->
<g id="edge33" class="edge">
<title>hxloc&#45;&gt;all</title>
<path fill="none" stroke="#7a869a" stroke-width="1.3" d="M525.87,-151.79C530.28,-125.35 538.74,-74.57 543.83,-44.04"/>
<polygon fill="#7a869a" stroke="#7a869a" stroke-width="1.3" points="546.61,-44.36 545.17,-36.01 541.09,-43.44 546.61,-44.36"/>
</g>
<!-- L1 -->
<g id="node20" class="node">
<title>L1</title>
<path fill="#eef3fb" stroke="#003087" stroke-width="1.5" d="M681.5,-720C681.5,-720 618.5,-720 618.5,-720 612.5,-720 606.5,-714 606.5,-708 606.5,-708 606.5,-696 606.5,-696 606.5,-690 612.5,-684 618.5,-684 618.5,-684 681.5,-684 681.5,-684 687.5,-684 693.5,-690 693.5,-696 693.5,-696 693.5,-708 693.5,-708 693.5,-714 687.5,-720 681.5,-720"/>
<text text-anchor="middle" x="650" y="-699.2" font-family="sans" font-size="11.00">core pipeline</text>
</g>
<!-- L2 -->
<g id="node21" class="node">
<title>L2</title>
<path fill="#dfeede" stroke="#00855b" stroke-width="1.5" d="M699,-644C699,-644 601,-644 601,-644 595,-644 589,-638 589,-632 589,-632 589,-620 589,-620 589,-614 595,-608 601,-608 601,-608 699,-608 699,-608 705,-608 711,-614 711,-620 711,-620 711,-632 711,-632 711,-638 705,-644 699,-644"/>
<text text-anchor="middle" x="650" y="-623.2" font-family="sans" font-size="11.00">changed this round</text>
</g>
<!-- L1&#45;&gt;L2 -->
<!-- L3 -->
<g id="node22" class="node">
<title>L3</title>
<path fill="#fde8e0" stroke="#c0392b" stroke-width="1.5" d="M686,-568C686,-568 614,-568 614,-568 608,-568 602,-562 602,-556 602,-556 602,-544 602,-544 602,-538 608,-532 614,-532 614,-532 686,-532 686,-532 692,-532 698,-538 698,-544 698,-544 698,-556 698,-556 698,-562 692,-568 686,-568"/>
<text text-anchor="middle" x="650" y="-547.2" font-family="sans" font-size="11.00">Hi&#45;C (optional)</text>
</g>
<!-- L2&#45;&gt;L3 -->
<!-- L4 -->
<g id="node23" class="node">
<title>L4</title>
<path fill="#fff3d6" stroke="#b8860b" stroke-width="1.5" d="M704,-492C704,-492 596,-492 596,-492 590,-492 584,-486 584,-480 584,-480 584,-468 584,-468 584,-462 590,-456 596,-456 596,-456 704,-456 704,-456 710,-456 716,-462 716,-468 716,-468 716,-480 716,-480 716,-486 710,-492 704,-492"/>
<text text-anchor="middle" x="650" y="-471.2" font-family="sans" font-size="11.00">synthetic benchmark</text>
</g>
<!-- L3&#45;&gt;L4 -->
</g>
</svg>
