<?xml version="1.0" encoding="UTF-8" standalone="no"?>
<!DOCTYPE svg PUBLIC "-//W3C//DTD SVG 1.1//EN"
 "http://www.w3.org/Graphics/SVG/1.1/DTD/svg11.dtd">
<!-- Generated by graphviz version 2.43.0 (0)
 -->
<!-- Title: snakemake_dag Pages: 1 -->
<svg width="1088pt" height="692pt"
 viewBox="0.00 0.00 1088.07 692.00" xmlns="http://www.w3.org/2000/svg" xmlns:xlink="http://www.w3.org/1999/xlink">
<g id="graph0" class="graph" transform="scale(1 1) rotate(0) translate(4 688)">
<title>snakemake_dag</title>
<polygon fill="white" stroke="transparent" points="-4,4 -4,-688 1084.07,-688 1084.07,4 -4,4"/>
<!-- 0 -->
<g id="node1" class="node">
<title>0</title>
<path fill="none" stroke="#d85656" stroke-width="2" d="M538.57,-36C538.57,-36 508.57,-36 508.57,-36 502.57,-36 496.57,-30 496.57,-24 496.57,-24 496.57,-12 496.57,-12 496.57,-6 502.57,0 508.57,0 508.57,0 538.57,0 538.57,0 544.57,0 550.57,-6 550.57,-12 550.57,-12 550.57,-24 550.57,-24 550.57,-30 544.57,-36 538.57,-36"/>
<text text-anchor="middle" x="523.57" y="-15.5" font-family="sans" font-size="10.00">all</text>
</g>
<!-- 1 -->
<g id="node2" class="node">
<title>1</title>
<path fill="none" stroke="#56d89a" stroke-width="2" d="M113.07,-540C113.07,-540 42.07,-540 42.07,-540 36.07,-540 30.07,-534 30.07,-528 30.07,-528 30.07,-516 30.07,-516 30.07,-510 36.07,-504 42.07,-504 42.07,-504 113.07,-504 113.07,-504 119.07,-504 125.07,-510 125.07,-516 125.07,-516 125.07,-528 125.07,-528 125.07,-534 119.07,-540 113.07,-540"/>
<text text-anchor="middle" x="77.57" y="-519.5" font-family="sans" font-size="10.00">merge_blacklist</text>
</g>
<!-- 1&#45;&gt;0 -->
<g id="edge6" class="edge">
<title>1&#45;&gt;0</title>
<path fill="none" stroke="grey" stroke-width="2" d="M69.88,-503.91C58.77,-477.62 39.57,-425.45 39.57,-379 39.57,-379 39.57,-379 39.57,-161 39.57,-110.12 67.15,-96.81 111.57,-72 175.48,-36.31 397.09,-23.9 486.12,-20.29"/>
<polygon fill="grey" stroke="grey" stroke-width="2" points="486.44,-23.78 496.3,-19.89 486.17,-16.78 486.44,-23.78"/>
</g>
<!-- 4 -->
<g id="node5" class="node">
<title>4</title>
<path fill="none" stroke="#5673d8" stroke-width="2" d="M223.57,-468C223.57,-468 193.57,-468 193.57,-468 187.57,-468 181.57,-462 181.57,-456 181.57,-456 181.57,-444 181.57,-444 181.57,-438 187.57,-432 193.57,-432 193.57,-432 223.57,-432 223.57,-432 229.57,-432 235.57,-438 235.57,-444 235.57,-444 235.57,-456 235.57,-456 235.57,-462 229.57,-468 223.57,-468"/>
<text text-anchor="middle" x="208.57" y="-447.5" font-family="sans" font-size="10.00">score</text>
</g>
<!-- 1&#45;&gt;4 -->
<g id="edge17" class="edge">
<title>1&#45;&gt;4</title>
<path fill="none" stroke="grey" stroke-width="2" d="M109.61,-503.88C128.58,-493.74 152.66,-480.88 172.31,-470.37"/>
<polygon fill="grey" stroke="grey" stroke-width="2" points="174.11,-473.38 181.28,-465.58 170.81,-467.21 174.11,-473.38"/>
</g>
<!-- 7 -->
<g id="node8" class="node">
<title>7</title>
<path fill="none" stroke="#56d8d0" stroke-width="2" d="M175.57,-324C175.57,-324 107.57,-324 107.57,-324 101.57,-324 95.57,-318 95.57,-312 95.57,-312 95.57,-300 95.57,-300 95.57,-294 101.57,-288 107.57,-288 107.57,-288 175.57,-288 175.57,-288 181.57,-288 187.57,-294 187.57,-300 187.57,-300 187.57,-312 187.57,-312 187.57,-318 181.57,-324 175.57,-324"/>
<text text-anchor="middle" x="141.57" y="-303.5" font-family="sans" font-size="10.00">perm_nulls_diff</text>
</g>
<!-- 1&#45;&gt;7 -->
<g id="edge25" class="edge">
<title>1&#45;&gt;7</title>
<path fill="none" stroke="grey" stroke-width="2" d="M76.43,-503.71C75.1,-473.28 75.33,-408.77 96.57,-360 101.02,-349.77 108.13,-340.01 115.39,-331.73"/>
<polygon fill="grey" stroke="grey" stroke-width="2" points="118.08,-333.97 122.32,-324.26 112.95,-329.21 118.08,-333.97"/>
</g>
<!-- 8 -->
<g id="node9" class="node">
<title>8</title>
<path fill="none" stroke="#56d8b9" stroke-width="2" d="M165.07,-396C165.07,-396 118.07,-396 118.07,-396 112.07,-396 106.07,-390 106.07,-384 106.07,-384 106.07,-372 106.07,-372 106.07,-366 112.07,-360 118.07,-360 118.07,-360 165.07,-360 165.07,-360 171.07,-360 177.07,-366 177.07,-372 177.07,-372 177.07,-384 177.07,-384 177.07,-390 171.07,-396 165.07,-396"/>
<text text-anchor="middle" x="141.57" y="-375.5" font-family="sans" font-size="10.00">perm_nulls</text>
</g>
<!-- 1&#45;&gt;8 -->
<g id="edge28" class="edge">
<title>1&#45;&gt;8</title>
<path fill="none" stroke="grey" stroke-width="2" d="M85.29,-503.87C96.29,-479.46 116.59,-434.43 129.56,-405.64"/>
<polygon fill="grey" stroke="grey" stroke-width="2" points="132.9,-406.74 133.82,-396.19 126.52,-403.87 132.9,-406.74"/>
</g>
<!-- 2 -->
<g id="node3" class="node">
<title>2</title>
<path fill="none" stroke="#97d856" stroke-width="2" d="M112.57,-612C112.57,-612 42.57,-612 42.57,-612 36.57,-612 30.57,-606 30.57,-600 30.57,-600 30.57,-588 30.57,-588 30.57,-582 36.57,-576 42.57,-576 42.57,-576 112.57,-576 112.57,-576 118.57,-576 124.57,-582 124.57,-588 124.57,-588 124.57,-600 124.57,-600 124.57,-606 118.57,-612 112.57,-612"/>
<text text-anchor="middle" x="77.57" y="-591.5" font-family="sans" font-size="10.00">detect_blacklist</text>
</g>
<!-- 2&#45;&gt;1 -->
<g id="edge14" class="edge">
<title>2&#45;&gt;1</title>
<path fill="none" stroke="grey" stroke-width="2" d="M77.57,-575.7C77.57,-567.98 77.57,-558.71 77.57,-550.11"/>
<polygon fill="grey" stroke="grey" stroke-width="2" points="81.07,-550.1 77.57,-540.1 74.07,-550.1 81.07,-550.1"/>
</g>
<!-- 3 -->
<g id="node4" class="node">
<title>3</title>
<path fill="none" stroke="#d88d56" stroke-width="2" d="M184.57,-684C184.57,-684 122.57,-684 122.57,-684 116.57,-684 110.57,-678 110.57,-672 110.57,-672 110.57,-660 110.57,-660 110.57,-654 116.57,-648 122.57,-648 122.57,-648 184.57,-648 184.57,-648 190.57,-648 196.57,-654 196.57,-660 196.57,-660 196.57,-672 196.57,-672 196.57,-678 190.57,-684 184.57,-684"/>
<text text-anchor="middle" x="153.57" y="-663.5" font-family="sans" font-size="10.00">bearing_sheet</text>
</g>
<!-- 3&#45;&gt;2 -->
<g id="edge15" class="edge">
<title>3&#45;&gt;2</title>
<path fill="none" stroke="grey" stroke-width="2" d="M134.78,-647.7C125.39,-639.05 113.88,-628.45 103.65,-619.03"/>
<polygon fill="grey" stroke="grey" stroke-width="2" points="105.87,-616.3 96.14,-612.1 101.12,-621.45 105.87,-616.3"/>
</g>
<!-- 3&#45;&gt;4 -->
<g id="edge16" class="edge">
<title>3&#45;&gt;4</title>
<path fill="none" stroke="grey" stroke-width="2" d="M158.15,-647.82C160.9,-637.46 164.46,-623.98 167.57,-612 179.74,-565.09 193.59,-510.41 201.68,-478.36"/>
<polygon fill="grey" stroke="grey" stroke-width="2" points="205.14,-478.96 204.19,-468.4 198.35,-477.25 205.14,-478.96"/>
</g>
<!-- 5 -->
<g id="node6" class="node">
<title>5</title>
<path fill="none" stroke="#ced856" stroke-width="2" d="M589.07,-324C589.07,-324 554.07,-324 554.07,-324 548.07,-324 542.07,-318 542.07,-312 542.07,-312 542.07,-300 542.07,-300 542.07,-294 548.07,-288 554.07,-288 554.07,-288 589.07,-288 589.07,-288 595.07,-288 601.07,-294 601.07,-300 601.07,-300 601.07,-312 601.07,-312 601.07,-318 595.07,-324 589.07,-324"/>
<text text-anchor="middle" x="571.57" y="-303.5" font-family="sans" font-size="10.00">compare</text>
</g>
<!-- 3&#45;&gt;5 -->
<g id="edge18" class="edge">
<title>3&#45;&gt;5</title>
<path fill="none" stroke="grey" stroke-width="2" d="M196.81,-658.93C299.7,-643.28 550.57,-597.48 550.57,-523 550.57,-523 550.57,-523 550.57,-449 550.57,-408.78 558.91,-362.84 565.08,-334.37"/>
<polygon fill="grey" stroke="grey" stroke-width="2" points="568.55,-334.89 567.32,-324.37 561.72,-333.36 568.55,-334.89"/>
</g>
<!-- 3&#45;&gt;7 -->
<g id="edge23" class="edge">
<title>3&#45;&gt;7</title>
<path fill="none" stroke="grey" stroke-width="2" d="M110.31,-658.36C81.08,-651.62 43.89,-638.24 21.57,-612 -4.7,-581.12 1.57,-563.54 1.57,-523 1.57,-523 1.57,-523 1.57,-449 1.57,-394.01 55.47,-352.59 96.38,-329.07"/>
<polygon fill="grey" stroke="grey" stroke-width="2" points="98.12,-332.11 105.15,-324.19 94.71,-326 98.12,-332.11"/>
</g>
<!-- 3&#45;&gt;8 -->
<g id="edge26" class="edge">
<title>3&#45;&gt;8</title>
<path fill="none" stroke="grey" stroke-width="2" d="M152.85,-647.97C150.85,-600.29 145.18,-465.18 142.73,-406.63"/>
<polygon fill="grey" stroke="grey" stroke-width="2" points="146.21,-406.15 142.29,-396.31 139.22,-406.44 146.21,-406.15"/>
</g>
<!-- 4&#45;&gt;0 -->
<g id="edge8" class="edge">
<title>4&#45;&gt;0</title>
<path fill="none" stroke="grey" stroke-width="2" d="M208.77,-431.91C208.84,-413.97 208.58,-384.96 206.57,-360 203.98,-327.8 208.42,-318.05 196.57,-288 175.04,-233.4 138.28,-235.96 120.57,-180 105.78,-133.3 105.3,-103.79 142.57,-72 193.84,-28.26 401.09,-20.55 486.5,-19.24"/>
<polygon fill="grey" stroke="grey" stroke-width="2" points="486.58,-22.74 496.53,-19.11 486.49,-15.74 486.58,-22.74"/>
</g>
<!-- 4&#45;&gt;5 -->
<g id="edge19" class="edge">
<title>4&#45;&gt;5</title>
<path fill="none" stroke="grey" stroke-width="2" d="M235.91,-445.49C278.89,-439.33 364.31,-424.42 431.57,-396 472.03,-378.9 513.96,-350.6 541.26,-330.5"/>
<polygon fill="grey" stroke="grey" stroke-width="2" points="543.66,-333.07 549.59,-324.29 539.48,-327.46 543.66,-333.07"/>
</g>
<!-- 4&#45;&gt;7 -->
<g id="edge24" class="edge">
<title>4&#45;&gt;7</title>
<path fill="none" stroke="grey" stroke-width="2" d="M206.41,-431.81C203.58,-413.27 197.49,-383.3 185.57,-360 180.45,-350 173.16,-340.19 165.98,-331.8"/>
<polygon fill="grey" stroke="grey" stroke-width="2" points="168.48,-329.34 159.21,-324.21 163.26,-334 168.48,-329.34"/>
</g>
<!-- 4&#45;&gt;8 -->
<g id="edge27" class="edge">
<title>4&#45;&gt;8</title>
<path fill="none" stroke="grey" stroke-width="2" d="M192.01,-431.7C183.89,-423.22 173.98,-412.86 165.1,-403.58"/>
<polygon fill="grey" stroke="grey" stroke-width="2" points="167.38,-400.91 157.94,-396.1 162.33,-405.75 167.38,-400.91"/>
</g>
<!-- 11 -->
<g id="node12" class="node">
<title>11</title>
<path fill="none" stroke="#d8c356" stroke-width="2" d="M410.57,-396C410.57,-396 366.57,-396 366.57,-396 360.57,-396 354.57,-390 354.57,-384 354.57,-384 354.57,-372 354.57,-372 354.57,-366 360.57,-360 366.57,-360 366.57,-360 410.57,-360 410.57,-360 416.57,-360 422.57,-366 422.57,-372 422.57,-372 422.57,-384 422.57,-384 422.57,-390 416.57,-396 410.57,-396"/>
<text text-anchor="middle" x="388.57" y="-375.5" font-family="sans" font-size="10.00">calibration</text>
</g>
<!-- 4&#45;&gt;11 -->
<g id="edge31" class="edge">
<title>4&#45;&gt;11</title>
<path fill="none" stroke="grey" stroke-width="2" d="M235.91,-438.37C264.82,-427.12 310.86,-409.22 344.83,-396.01"/>
<polygon fill="grey" stroke="grey" stroke-width="2" points="346.45,-399.13 354.5,-392.25 343.92,-392.61 346.45,-399.13"/>
</g>
<!-- 5&#45;&gt;0 -->
<g id="edge11" class="edge">
<title>5&#45;&gt;0</title>
<path fill="none" stroke="grey" stroke-width="2" d="M569.75,-287.93C565.48,-249.26 553.94,-152.1 537.57,-72 535.83,-63.48 533.54,-54.28 531.33,-45.98"/>
<polygon fill="grey" stroke="grey" stroke-width="2" points="534.63,-44.78 528.6,-36.07 527.88,-46.64 534.63,-44.78"/>
</g>
<!-- 6 -->
<g id="node7" class="node">
<title>6</title>
<path fill="none" stroke="#56c1d8" stroke-width="2" d="M292.07,-252C292.07,-252 245.07,-252 245.07,-252 239.07,-252 233.07,-246 233.07,-240 233.07,-240 233.07,-228 233.07,-228 233.07,-222 239.07,-216 245.07,-216 245.07,-216 292.07,-216 292.07,-216 298.07,-216 304.07,-222 304.07,-228 304.07,-228 304.07,-240 304.07,-240 304.07,-246 298.07,-252 292.07,-252"/>
<text text-anchor="middle" x="268.57" y="-231.5" font-family="sans" font-size="10.00">pvalue_diff</text>
</g>
<!-- 5&#45;&gt;6 -->
<g id="edge20" class="edge">
<title>5&#45;&gt;6</title>
<path fill="none" stroke="grey" stroke-width="2" d="M541.96,-298.16C488.93,-285.91 377.38,-260.14 314.39,-245.59"/>
<polygon fill="grey" stroke="grey" stroke-width="2" points="314.87,-242.1 304.34,-243.26 313.29,-248.92 314.87,-242.1"/>
</g>
<!-- 12 -->
<g id="node13" class="node">
<title>12</title>
<path fill="none" stroke="#b6d856" stroke-width="2" d="M701.07,-252C701.07,-252 602.07,-252 602.07,-252 596.07,-252 590.07,-246 590.07,-240 590.07,-240 590.07,-228 590.07,-228 590.07,-222 596.07,-216 602.07,-216 602.07,-216 701.07,-216 701.07,-216 707.07,-216 713.07,-222 713.07,-228 713.07,-228 713.07,-240 713.07,-240 713.07,-246 707.07,-252 701.07,-252"/>
<text text-anchor="middle" x="651.57" y="-231.5" font-family="sans" font-size="10.00">decomposition_report</text>
</g>
<!-- 5&#45;&gt;12 -->
<g id="edge32" class="edge">
<title>5&#45;&gt;12</title>
<path fill="none" stroke="grey" stroke-width="2" d="M591.34,-287.7C601.32,-278.97 613.58,-268.24 624.43,-258.75"/>
<polygon fill="grey" stroke="grey" stroke-width="2" points="626.8,-261.32 632.02,-252.1 622.19,-256.06 626.8,-261.32"/>
</g>
<!-- 6&#45;&gt;0 -->
<g id="edge9" class="edge">
<title>6&#45;&gt;0</title>
<path fill="none" stroke="grey" stroke-width="2" d="M232.94,-229.78C201.18,-224.81 156.44,-212.17 134.57,-180 103.45,-134.23 148.27,-99.03 196.57,-72 245.72,-44.49 411.08,-28.05 486.05,-21.85"/>
<polygon fill="grey" stroke="grey" stroke-width="2" points="486.75,-25.3 496.43,-21 486.18,-18.32 486.75,-25.3"/>
</g>
<!-- 10 -->
<g id="node11" class="node">
<title>10</title>
<path fill="none" stroke="#568ad8" stroke-width="2" d="M249.07,-180C249.07,-180 156.07,-180 156.07,-180 150.07,-180 144.07,-174 144.07,-168 144.07,-168 144.07,-156 144.07,-156 144.07,-150 150.07,-144 156.07,-144 156.07,-144 249.07,-144 249.07,-144 255.07,-144 261.07,-150 261.07,-156 261.07,-156 261.07,-168 261.07,-168 261.07,-174 255.07,-180 249.07,-180"/>
<text text-anchor="middle" x="202.57" y="-159.5" font-family="sans" font-size="10.00">regional_enrichment</text>
</g>
<!-- 6&#45;&gt;10 -->
<g id="edge30" class="edge">
<title>6&#45;&gt;10</title>
<path fill="none" stroke="grey" stroke-width="2" d="M252.25,-215.7C244.26,-207.22 234.5,-196.86 225.75,-187.58"/>
<polygon fill="grey" stroke="grey" stroke-width="2" points="228.1,-184.98 218.7,-180.1 223.01,-189.78 228.1,-184.98"/>
</g>
<!-- 14 -->
<g id="node15" class="node">
<title>14</title>
<path fill="none" stroke="#d87556" stroke-width="2" d="M378.07,-180C378.07,-180 291.07,-180 291.07,-180 285.07,-180 279.07,-174 279.07,-168 279.07,-168 279.07,-156 279.07,-156 279.07,-150 285.07,-144 291.07,-144 291.07,-144 378.07,-144 378.07,-144 384.07,-144 390.07,-150 390.07,-156 390.07,-156 390.07,-168 390.07,-168 390.07,-174 384.07,-180 378.07,-180"/>
<text text-anchor="middle" x="334.57" y="-159.5" font-family="sans" font-size="10.00">bearing_hic_figures</text>
</g>
<!-- 6&#45;&gt;14 -->
<g id="edge33" class="edge">
<title>6&#45;&gt;14</title>
<path fill="none" stroke="grey" stroke-width="2" d="M284.88,-215.7C292.88,-207.22 302.64,-196.86 311.39,-187.58"/>
<polygon fill="grey" stroke="grey" stroke-width="2" points="314.13,-189.78 318.44,-180.1 309.03,-184.98 314.13,-189.78"/>
</g>
<!-- 18 -->
<g id="node19" class="node">
<title>18</title>
<path fill="none" stroke="#56d863" stroke-width="2" d="M483.07,-180C483.07,-180 420.07,-180 420.07,-180 414.07,-180 408.07,-174 408.07,-168 408.07,-168 408.07,-156 408.07,-156 408.07,-150 414.07,-144 420.07,-144 420.07,-144 483.07,-144 483.07,-144 489.07,-144 495.07,-150 495.07,-156 495.07,-156 495.07,-168 495.07,-168 495.07,-174 489.07,-180 483.07,-180"/>
<text text-anchor="middle" x="451.57" y="-159.5" font-family="sans" font-size="10.00">hic_crosslocus</text>
</g>
<!-- 6&#45;&gt;18 -->
<g id="edge34" class="edge">
<title>6&#45;&gt;18</title>
<path fill="none" stroke="grey" stroke-width="2" d="M304.29,-219.34C331.04,-209.11 368.07,-194.94 398.31,-183.37"/>
<polygon fill="grey" stroke="grey" stroke-width="2" points="399.78,-186.56 407.87,-179.72 397.28,-180.02 399.78,-186.56"/>
</g>
<!-- 7&#45;&gt;6 -->
<g id="edge21" class="edge">
<title>7&#45;&gt;6</title>
<path fill="none" stroke="grey" stroke-width="2" d="M172.64,-287.88C189.39,-278.64 210.27,-267.13 228.27,-257.21"/>
<polygon fill="grey" stroke="grey" stroke-width="2" points="230.31,-260.08 237.38,-252.19 226.93,-253.95 230.31,-260.08"/>
</g>
<!-- 8&#45;&gt;7 -->
<g id="edge22" class="edge">
<title>8&#45;&gt;7</title>
<path fill="none" stroke="grey" stroke-width="2" d="M141.57,-359.7C141.57,-351.98 141.57,-342.71 141.57,-334.11"/>
<polygon fill="grey" stroke="grey" stroke-width="2" points="145.07,-334.1 141.57,-324.1 138.07,-334.1 145.07,-334.1"/>
</g>
<!-- 9 -->
<g id="node10" class="node">
<title>9</title>
<path fill="none" stroke="#56a9d8" stroke-width="2" d="M311.57,-108C311.57,-108 217.57,-108 217.57,-108 211.57,-108 205.57,-102 205.57,-96 205.57,-96 205.57,-84 205.57,-84 205.57,-78 211.57,-72 217.57,-72 217.57,-72 311.57,-72 311.57,-72 317.57,-72 323.57,-78 323.57,-84 323.57,-84 323.57,-96 323.57,-96 323.57,-102 317.57,-108 311.57,-108"/>
<text text-anchor="middle" x="264.57" y="-87.5" font-family="sans" font-size="10.00">regional_consolidate</text>
</g>
<!-- 9&#45;&gt;0 -->
<g id="edge12" class="edge">
<title>9&#45;&gt;0</title>
<path fill="none" stroke="grey" stroke-width="2" d="M323.66,-73.03C373.73,-59.5 443.97,-40.51 486.48,-29.02"/>
<polygon fill="grey" stroke="grey" stroke-width="2" points="487.66,-32.33 496.4,-26.34 485.83,-25.57 487.66,-32.33"/>
</g>
<!-- 10&#45;&gt;9 -->
<g id="edge29" class="edge">
<title>10&#45;&gt;9</title>
<path fill="none" stroke="grey" stroke-width="2" d="M217.89,-143.7C225.33,-135.3 234.39,-125.07 242.55,-115.86"/>
<polygon fill="grey" stroke="grey" stroke-width="2" points="245.41,-117.91 249.42,-108.1 240.17,-113.27 245.41,-117.91"/>
</g>
<!-- 11&#45;&gt;0 -->
<g id="edge4" class="edge">
<title>11&#45;&gt;0</title>
<path fill="none" stroke="grey" stroke-width="2" d="M401.78,-359.98C426.43,-327.22 479.15,-252.22 503.57,-180 518.8,-134.93 522.64,-79.25 523.49,-46.58"/>
<polygon fill="grey" stroke="grey" stroke-width="2" points="526.99,-46.49 523.67,-36.43 519.99,-46.36 526.99,-46.49"/>
</g>
<!-- 12&#45;&gt;0 -->
<g id="edge2" class="edge">
<title>12&#45;&gt;0</title>
<path fill="none" stroke="grey" stroke-width="2" d="M645.54,-215.54C634.47,-184.84 608.96,-119.93 575.57,-72 568.44,-61.77 559.29,-51.71 550.64,-43.15"/>
<polygon fill="grey" stroke="grey" stroke-width="2" points="552.88,-40.45 543.25,-36.05 548.03,-45.5 552.88,-40.45"/>
</g>
<!-- 13 -->
<g id="node14" class="node">
<title>13</title>
<path fill="none" stroke="#d8ac56" stroke-width="2" d="M687.07,-108C687.07,-108 640.07,-108 640.07,-108 634.07,-108 628.07,-102 628.07,-96 628.07,-96 628.07,-84 628.07,-84 628.07,-78 634.07,-72 640.07,-72 640.07,-72 687.07,-72 687.07,-72 693.07,-72 699.07,-78 699.07,-84 699.07,-84 699.07,-96 699.07,-96 699.07,-102 693.07,-108 687.07,-108"/>
<text text-anchor="middle" x="663.57" y="-87.5" font-family="sans" font-size="10.00">benchmark</text>
</g>
<!-- 13&#45;&gt;0 -->
<g id="edge10" class="edge">
<title>13&#45;&gt;0</title>
<path fill="none" stroke="grey" stroke-width="2" d="M629.32,-71.88C608.31,-61.37 581.42,-47.92 560.01,-37.22"/>
<polygon fill="grey" stroke="grey" stroke-width="2" points="561.42,-34.01 550.91,-32.67 558.28,-40.27 561.42,-34.01"/>
</g>
<!-- 14&#45;&gt;0 -->
<g id="edge5" class="edge">
<title>14&#45;&gt;0</title>
<path fill="none" stroke="grey" stroke-width="2" d="M357.37,-143.87C391.14,-118.5 454.55,-70.85 492.53,-42.32"/>
<polygon fill="grey" stroke="grey" stroke-width="2" points="494.8,-44.99 500.69,-36.19 490.59,-39.4 494.8,-44.99"/>
</g>
<!-- 15 -->
<g id="node16" class="node">
<title>15</title>
<path fill="none" stroke="#56d882" stroke-width="2" d="M810.07,-108C810.07,-108 729.07,-108 729.07,-108 723.07,-108 717.07,-102 717.07,-96 717.07,-96 717.07,-84 717.07,-84 717.07,-78 723.07,-72 729.07,-72 729.07,-72 810.07,-72 810.07,-72 816.07,-72 822.07,-78 822.07,-84 822.07,-84 822.07,-96 822.07,-96 822.07,-102 816.07,-108 810.07,-108"/>
<text text-anchor="middle" x="769.57" y="-87.5" font-family="sans" font-size="10.00">hic_tad_extension</text>
</g>
<!-- 15&#45;&gt;0 -->
<g id="edge3" class="edge">
<title>15&#45;&gt;0</title>
<path fill="none" stroke="grey" stroke-width="2" d="M716.8,-73.98C669.71,-60.59 601.98,-41.31 560.48,-29.5"/>
<polygon fill="grey" stroke="grey" stroke-width="2" points="561.35,-26.11 550.78,-26.74 559.44,-32.85 561.35,-26.11"/>
</g>
<!-- 16 -->
<g id="node17" class="node">
<title>16</title>
<path fill="none" stroke="#80d856" stroke-width="2" d="M930.57,-108C930.57,-108 852.57,-108 852.57,-108 846.57,-108 840.57,-102 840.57,-96 840.57,-96 840.57,-84 840.57,-84 840.57,-78 846.57,-72 852.57,-72 852.57,-72 930.57,-72 930.57,-72 936.57,-72 942.57,-78 942.57,-84 942.57,-84 942.57,-96 942.57,-96 942.57,-102 936.57,-108 930.57,-108"/>
<text text-anchor="middle" x="891.57" y="-87.5" font-family="sans" font-size="10.00">hic_compartment</text>
</g>
<!-- 16&#45;&gt;0 -->
<g id="edge13" class="edge">
<title>16&#45;&gt;0</title>
<path fill="none" stroke="grey" stroke-width="2" d="M840.41,-74.34C837.09,-73.51 833.79,-72.72 830.57,-72 734.2,-50.31 619.08,-32.59 561.02,-24.22"/>
<polygon fill="grey" stroke="grey" stroke-width="2" points="561.25,-20.72 550.85,-22.77 560.26,-27.65 561.25,-20.72"/>
</g>
<!-- 17 -->
<g id="node18" class="node">
<title>17</title>
<path fill="none" stroke="#61d856" stroke-width="2" d="M1068.07,-108C1068.07,-108 973.07,-108 973.07,-108 967.07,-108 961.07,-102 961.07,-96 961.07,-96 961.07,-84 961.07,-84 961.07,-78 967.07,-72 973.07,-72 973.07,-72 1068.07,-72 1068.07,-72 1074.07,-72 1080.07,-78 1080.07,-84 1080.07,-84 1080.07,-96 1080.07,-96 1080.07,-102 1074.07,-108 1068.07,-108"/>
<text text-anchor="middle" x="1020.57" y="-87.5" font-family="sans" font-size="10.00">hic_contact_isolation</text>
</g>
<!-- 17&#45;&gt;0 -->
<g id="edge1" class="edge">
<title>17&#45;&gt;0</title>
<path fill="none" stroke="grey" stroke-width="2" d="M960.82,-73.82C957.7,-73.17 954.6,-72.56 951.57,-72 808.4,-45.6 635.81,-28.73 561.08,-22.14"/>
<polygon fill="grey" stroke="grey" stroke-width="2" points="561.05,-18.62 550.78,-21.24 560.44,-25.6 561.05,-18.62"/>
</g>
<!-- 18&#45;&gt;0 -->
<g id="edge7" class="edge">
<title>18&#45;&gt;0</title>
<path fill="none" stroke="grey" stroke-width="2" d="M460.25,-143.87C472.69,-119.35 495.66,-74.03 510.25,-45.26"/>
<polygon fill="grey" stroke="grey" stroke-width="2" points="513.45,-46.69 514.85,-36.19 507.21,-43.53 513.45,-46.69"/>
</g>
</g>
</svg>
